<?xml version="1.0" encoding="utf-8"?>
<!-- Generator: Adobe Illustrator 22.0.1, SVG Export Plug-In . SVG Version: 6.00 Build 0)  -->
<svg version="1.1" id="Layer_1" xmlns="http://www.w3.org/2000/svg" xmlns:xlink="http://www.w3.org/1999/xlink" x="0px" y="0px"
	 viewBox="0 0 630 135.8" style="enable-background:new 0 0 630 135.8;" xml:space="preserve">
<style type="text/css">
	.st0{fill:#046BB7;}
	.st1{fill:#FFFFFF;}
</style>
<g id="sweetbot_logo">
	<polygon id="background" class="st0" points="0,0 0,135.8 494.2,135.8 630,0 	"/>
	<g id="logotype">
		<path class="st1" d="M62.4,73.1c0,2-0.5,3.8-1.6,5.4c-1,1.6-2.5,2.9-4.5,3.8c-2,0.9-4.4,1.4-7.1,1.4c-3.3,0-6-0.6-8.1-1.9
			c-1.5-0.9-2.7-2.1-3.7-3.6c-0.9-1.5-1.4-2.9-1.4-4.3c0-0.8,0.3-1.5,0.8-2.1s1.3-0.9,2.2-0.9c0.7,0,1.3,0.2,1.8,0.7
			c0.5,0.5,0.9,1.1,1.3,2c0.4,1.1,0.9,1.9,1.4,2.7c0.5,0.7,1.2,1.3,2.1,1.8c0.9,0.5,2.1,0.7,3.5,0.7c2,0,3.6-0.5,4.9-1.4
			c1.2-0.9,1.9-2.1,1.9-3.5c0-1.1-0.3-2-1-2.7c-0.7-0.7-1.5-1.2-2.6-1.6c-1.1-0.4-2.5-0.7-4.3-1.2c-2.4-0.6-4.4-1.2-6-2
			c-1.6-0.7-2.9-1.8-3.8-3.1c-0.9-1.3-1.4-2.9-1.4-4.8c0-1.8,0.5-3.5,1.5-4.9c1-1.4,2.4-2.5,4.3-3.3c1.9-0.8,4.1-1.1,6.7-1.1
			c2,0,3.8,0.3,5.3,0.8c1.5,0.5,2.7,1.2,3.7,2c1,0.8,1.7,1.7,2.2,2.6c0.5,0.9,0.7,1.8,0.7,2.7c0,0.8-0.3,1.5-0.9,2.2
			c-0.6,0.6-1.3,1-2.1,1c-0.8,0-1.4-0.2-1.8-0.6c-0.4-0.4-0.8-1-1.3-1.9c-0.6-1.3-1.3-2.2-2.2-2.9s-2.2-1.1-4.1-1.1
			c-1.7,0-3.1,0.4-4.2,1.1c-1.1,0.8-1.6,1.7-1.6,2.8c0,0.7,0.2,1.2,0.5,1.7c0.4,0.5,0.9,0.9,1.5,1.2c0.6,0.3,1.3,0.6,1.9,0.8
			c0.6,0.2,1.7,0.5,3.2,0.9c1.9,0.4,3.6,0.9,5.1,1.4c1.5,0.5,2.8,1.2,3.9,1.9c1.1,0.8,1.9,1.7,2.5,2.9C62.1,70,62.4,71.4,62.4,73.1z
			"/>
		<path class="st1" d="M91.6,77.8l-5.4-19.9l-5.4,19.9c-0.4,1.5-0.8,2.6-1,3.3c-0.2,0.7-0.7,1.2-1.3,1.8c-0.6,0.5-1.4,0.8-2.5,0.8
			c-0.8,0-1.5-0.2-2.1-0.5c-0.5-0.3-1-0.7-1.3-1.3c-0.3-0.6-0.6-1.2-0.8-2c-0.2-0.8-0.4-1.5-0.6-2.2l-5.5-22.4
			c-0.3-1.3-0.5-2.3-0.5-3c0-0.9,0.3-1.6,0.9-2.2c0.6-0.6,1.4-0.9,2.2-0.9c1.2,0,2,0.4,2.5,1.2c0.4,0.8,0.8,1.9,1.1,3.4l4.3,19.4
			l4.9-18.1c0.4-1.4,0.7-2.4,1-3.2c0.3-0.7,0.8-1.4,1.4-1.9c0.6-0.5,1.5-0.8,2.7-0.8c1.1,0,2,0.3,2.6,0.8c0.6,0.6,1.1,1.2,1.3,1.8
			c0.2,0.6,0.6,1.7,1,3.2l4.9,18.1l4.4-19.4c0.2-1,0.4-1.8,0.6-2.4c0.2-0.6,0.5-1.1,1-1.5c0.5-0.5,1.1-0.7,2-0.7
			c0.9,0,1.6,0.3,2.2,0.9c0.6,0.6,0.9,1.3,0.9,2.2c0,0.6-0.2,1.6-0.5,3l-5.5,22.4c-0.4,1.5-0.7,2.6-0.9,3.3
			c-0.2,0.7-0.7,1.3-1.3,1.8c-0.6,0.5-1.4,0.8-2.5,0.8c-1,0-1.9-0.3-2.5-0.8c-0.6-0.5-1.1-1.1-1.3-1.7
			C92.4,80.5,92.1,79.4,91.6,77.8z"/>
		<path class="st1" d="M133.5,55h-15.2v8.2h14c1,0,1.8,0.2,2.3,0.7c0.5,0.5,0.8,1.1,0.8,1.8c0,0.8-0.2,1.4-0.7,1.8
			c-0.5,0.5-1.3,0.7-2.3,0.7h-14v9.4h15.7c1.1,0,1.9,0.2,2.4,0.7c0.5,0.5,0.8,1.1,0.8,2c0,0.8-0.3,1.4-0.8,1.9
			c-0.5,0.5-1.3,0.7-2.4,0.7h-18.3c-1.5,0-2.5-0.3-3.2-1c-0.6-0.6-1-1.7-1-3.1V54c0-1,0.1-1.8,0.4-2.4c0.3-0.6,0.7-1.1,1.3-1.3
			c0.6-0.3,1.4-0.4,2.3-0.4h17.8c1.1,0,1.9,0.2,2.4,0.7c0.5,0.5,0.8,1.1,0.8,1.9c0,0.8-0.3,1.4-0.8,1.9
			C135.4,54.8,134.6,55,133.5,55z"/>
		<path class="st1" d="M164.5,55h-15.2v8.2h14c1,0,1.8,0.2,2.3,0.7c0.5,0.5,0.8,1.1,0.8,1.8c0,0.8-0.2,1.4-0.7,1.8
			c-0.5,0.5-1.3,0.7-2.3,0.7h-14v9.4H165c1.1,0,1.9,0.2,2.4,0.7c0.5,0.5,0.8,1.1,0.8,2c0,0.8-0.3,1.4-0.8,1.9
			c-0.5,0.5-1.3,0.7-2.4,0.7h-18.3c-1.5,0-2.5-0.3-3.2-1c-0.6-0.6-1-1.7-1-3.1V54c0-1,0.1-1.8,0.4-2.4c0.3-0.6,0.7-1.1,1.3-1.3
			c0.6-0.3,1.4-0.4,2.3-0.4h17.8c1.1,0,1.9,0.2,2.4,0.7c0.5,0.5,0.8,1.1,0.8,1.9c0,0.8-0.3,1.4-0.8,1.9
			C166.4,54.8,165.6,55,164.5,55z"/>
		<path class="st1" d="M195.1,55.4h-7.3v24.1c0,1.4-0.3,2.4-0.9,3.1c-0.6,0.7-1.4,1-2.4,1c-1,0-1.8-0.3-2.4-1
			c-0.6-0.7-0.9-1.7-0.9-3.1V55.4h-7.3c-1.1,0-2-0.3-2.6-0.8c-0.6-0.5-0.8-1.2-0.8-2c0-0.9,0.3-1.5,0.9-2c0.6-0.5,1.4-0.7,2.5-0.7
			h21.4c1.2,0,2,0.3,2.6,0.8c0.6,0.5,0.8,1.2,0.8,2c0,0.8-0.3,1.5-0.9,2C197.1,55.1,196.3,55.4,195.1,55.4z"/>
		<path class="st1" d="M216.7,83.1h-10.1c-1.5,0-2.5-0.3-3.1-1c-0.6-0.7-0.9-1.7-0.9-3.1V54c0-1.5,0.3-2.5,1-3.2
			c0.6-0.6,1.7-1,3.1-1h10.8c1.6,0,3,0.1,4.1,0.3c1.2,0.2,2.2,0.6,3.1,1.1c0.8,0.5,1.5,1.1,2.1,1.8c0.6,0.7,1.1,1.5,1.4,2.4
			c0.3,0.9,0.5,1.8,0.5,2.8c0,3.3-1.7,5.8-5,7.3c4.4,1.4,6.5,4.1,6.5,8.1c0,1.9-0.5,3.5-1.4,5c-1,1.5-2.2,2.6-3.9,3.3
			c-1,0.4-2.2,0.7-3.5,0.9C220,83,218.5,83.1,216.7,83.1z M209.2,54.9v8.6h6.2c1.7,0,3-0.2,3.9-0.5s1.6-0.9,2.1-1.8
			c0.4-0.6,0.6-1.3,0.6-2.1c0-1.7-0.6-2.8-1.8-3.3c-1.2-0.6-3-0.8-5.5-0.8H209.2z M216.2,68.3h-7V78h7.2c4.5,0,6.8-1.6,6.8-4.9
			c0-1.7-0.6-2.9-1.8-3.6C220.3,68.7,218.6,68.3,216.2,68.3z"/>
		<path class="st1" d="M250.5,49.3c3.4,0,6.4,0.7,8.9,2.1c2.5,1.4,4.3,3.4,5.6,6c1.3,2.6,1.9,5.6,1.9,9.1c0,2.6-0.3,4.9-1,7
			c-0.7,2.1-1.7,3.9-3.1,5.5c-1.4,1.5-3.1,2.7-5.1,3.5c-2,0.8-4.3,1.2-7,1.2c-2.6,0-4.9-0.4-7-1.3c-2.1-0.8-3.8-2-5.1-3.5
			s-2.4-3.4-3.1-5.5c-0.7-2.1-1.1-4.5-1.1-7c0-2.6,0.4-4.9,1.1-7c0.7-2.1,1.8-3.9,3.2-5.4c1.4-1.5,3.1-2.6,5.1-3.4
			C245.7,49.7,248,49.3,250.5,49.3z M260.1,66.4c0-2.4-0.4-4.5-1.2-6.3c-0.8-1.8-1.9-3.1-3.4-4c-1.5-0.9-3.1-1.4-5-1.4
			c-1.3,0-2.6,0.3-3.7,0.8c-1.1,0.5-2.1,1.2-2.9,2.2c-0.8,1-1.5,2.2-1.9,3.7c-0.5,1.5-0.7,3.2-0.7,5.1c0,1.9,0.2,3.6,0.7,5.1
			c0.5,1.5,1.1,2.8,2,3.8c0.9,1,1.9,1.8,3,2.3c1.1,0.5,2.4,0.7,3.7,0.7c1.7,0,3.3-0.4,4.7-1.3c1.4-0.9,2.6-2.2,3.4-4
			C259.7,71.2,260.1,69,260.1,66.4z"/>
		<path class="st1" d="M292.5,55.4h-7.3v24.1c0,1.4-0.3,2.4-0.9,3.1c-0.6,0.7-1.4,1-2.4,1c-1,0-1.8-0.3-2.4-1
			c-0.6-0.7-0.9-1.7-0.9-3.1V55.4h-7.3c-1.1,0-2-0.3-2.6-0.8c-0.6-0.5-0.8-1.2-0.8-2c0-0.9,0.3-1.5,0.9-2c0.6-0.5,1.4-0.7,2.5-0.7
			h21.4c1.2,0,2,0.3,2.6,0.8c0.6,0.5,0.8,1.2,0.8,2c0,0.8-0.3,1.5-0.9,2C294.5,55.1,293.6,55.4,292.5,55.4z"/>
		<path class="st1" d="M297.8,83.6c-0.9,0-1.7-0.3-2.4-0.9c-0.7-0.6-1-1.4-1-2.5c0-0.9,0.3-1.7,1-2.4c0.6-0.7,1.4-1,2.4-1
			c1,0,1.8,0.3,2.4,1c0.7,0.7,1,1.5,1,2.4c0,1.1-0.3,1.9-1,2.5C299.5,83.3,298.7,83.6,297.8,83.6z"/>
		<path class="st1" d="M312.8,49.8h8.8c2.3,0,4.2,0.2,5.9,0.6c1.6,0.4,3.1,1.2,4.4,2.4c3.5,3,5.2,7.5,5.2,13.5c0,2-0.2,3.8-0.5,5.5
			c-0.3,1.6-0.9,3.1-1.6,4.5c-0.7,1.3-1.7,2.5-2.8,3.5c-0.9,0.8-1.9,1.4-2.9,1.9c-1.1,0.5-2.2,0.8-3.4,1c-1.2,0.2-2.6,0.3-4.1,0.3
			h-8.8c-1.2,0-2.1-0.2-2.8-0.6c-0.6-0.4-1-0.9-1.2-1.6c-0.2-0.7-0.3-1.5-0.3-2.6V54c0-1.4,0.3-2.5,1-3.1
			C310.3,50.2,311.3,49.8,312.8,49.8z M315.4,55.2v22.5h5.1c1.1,0,2,0,2.6-0.1c0.6-0.1,1.3-0.2,2-0.5c0.7-0.2,1.3-0.6,1.8-1
			c2.3-1.9,3.4-5.2,3.4-9.8c0-3.3-0.5-5.7-1.5-7.4c-1-1.6-2.2-2.7-3.7-3.1c-1.4-0.4-3.2-0.7-5.3-0.7H315.4z"/>
		<path class="st1" d="M364.9,55h-15.2v8.2h14c1,0,1.8,0.2,2.3,0.7c0.5,0.5,0.8,1.1,0.8,1.8c0,0.8-0.2,1.4-0.7,1.8
			c-0.5,0.5-1.3,0.7-2.3,0.7h-14v9.4h15.7c1.1,0,1.9,0.2,2.4,0.7c0.5,0.5,0.8,1.1,0.8,2c0,0.8-0.3,1.4-0.8,1.9
			c-0.5,0.5-1.3,0.7-2.4,0.7h-18.3c-1.5,0-2.5-0.3-3.2-1c-0.6-0.6-1-1.7-1-3.1V54c0-1,0.1-1.8,0.4-2.4c0.3-0.6,0.7-1.1,1.3-1.3
			c0.6-0.3,1.4-0.4,2.3-0.4h17.8c1.1,0,1.9,0.2,2.4,0.7c0.5,0.5,0.8,1.1,0.8,1.9c0,0.8-0.3,1.4-0.8,1.9
			C366.7,54.8,365.9,55,364.9,55z"/>
		<path class="st1" d="M399.2,73.1c0,2-0.5,3.8-1.6,5.4c-1,1.6-2.5,2.9-4.5,3.8c-2,0.9-4.4,1.4-7.1,1.4c-3.3,0-6-0.6-8.1-1.9
			c-1.5-0.9-2.7-2.1-3.7-3.6c-0.9-1.5-1.4-2.9-1.4-4.3c0-0.8,0.3-1.5,0.8-2.1c0.6-0.6,1.3-0.9,2.2-0.9c0.7,0,1.3,0.2,1.8,0.7
			c0.5,0.5,0.9,1.1,1.3,2c0.4,1.1,0.9,1.9,1.4,2.7c0.5,0.7,1.2,1.3,2.1,1.8c0.9,0.5,2.1,0.7,3.5,0.7c2,0,3.6-0.5,4.9-1.4
			c1.2-0.9,1.9-2.1,1.9-3.5c0-1.1-0.3-2-1-2.7c-0.7-0.7-1.5-1.2-2.6-1.6c-1.1-0.4-2.5-0.7-4.3-1.2c-2.4-0.6-4.4-1.2-6-2
			c-1.6-0.7-2.9-1.8-3.8-3.1c-0.9-1.3-1.4-2.9-1.4-4.8c0-1.8,0.5-3.5,1.5-4.9c1-1.4,2.4-2.5,4.3-3.3c1.9-0.8,4.1-1.1,6.7-1.1
			c2,0,3.8,0.3,5.3,0.8c1.5,0.5,2.7,1.2,3.7,2c1,0.8,1.7,1.7,2.2,2.6c0.5,0.9,0.7,1.8,0.7,2.7c0,0.8-0.3,1.5-0.9,2.2
			c-0.6,0.6-1.3,1-2.1,1c-0.8,0-1.4-0.2-1.8-0.6c-0.4-0.4-0.8-1-1.3-1.9c-0.6-1.3-1.3-2.2-2.2-2.9s-2.2-1.1-4.1-1.1
			c-1.7,0-3.1,0.4-4.2,1.1c-1.1,0.8-1.6,1.7-1.6,2.8c0,0.7,0.2,1.2,0.5,1.7c0.4,0.5,0.9,0.9,1.5,1.2c0.6,0.3,1.3,0.6,1.9,0.8
			c0.6,0.2,1.7,0.5,3.2,0.9c1.9,0.4,3.6,0.9,5.1,1.4c1.5,0.5,2.8,1.2,3.9,1.9c1.1,0.8,1.9,1.7,2.5,2.9
			C398.9,70,399.2,71.4,399.2,73.1z"/>
		<path class="st1" d="M405.1,79.5V53.4c0-1.4,0.3-2.4,0.9-3.1c0.6-0.7,1.4-1,2.4-1c1,0,1.8,0.3,2.5,1c0.6,0.7,0.9,1.7,0.9,3.1v26.2
			c0,1.4-0.3,2.4-0.9,3.1c-0.6,0.7-1.4,1-2.5,1c-1,0-1.8-0.3-2.4-1C405.4,81.9,405.1,80.9,405.1,79.5z"/>
		<path class="st1" d="M449.7,69.6v6.4c0,0.8-0.1,1.5-0.2,2c-0.2,0.5-0.5,1-0.9,1.4c-0.4,0.4-1,0.8-1.7,1.2c-2,1.1-3.9,1.9-5.8,2.4
			c-1.9,0.5-3.9,0.7-6.1,0.7c-2.6,0-4.9-0.4-7-1.2c-2.1-0.8-3.9-1.9-5.4-3.4c-1.5-1.5-2.6-3.3-3.4-5.4c-0.8-2.1-1.2-4.5-1.2-7.1
			c0-2.6,0.4-4.9,1.2-7.1c0.8-2.1,1.9-4,3.4-5.5c1.5-1.5,3.3-2.6,5.5-3.4c2.1-0.8,4.6-1.2,7.3-1.2c2.2,0,4.2,0.3,5.9,0.9
			c1.7,0.6,3.1,1.3,4.2,2.3c1.1,0.9,1.9,1.9,2.4,2.9c0.5,1,0.8,1.9,0.8,2.7c0,0.8-0.3,1.6-0.9,2.2s-1.4,0.9-2.3,0.9
			c-0.5,0-0.9-0.1-1.4-0.3c-0.4-0.2-0.8-0.5-1.1-1c-0.8-1.3-1.5-2.3-2.1-2.9c-0.6-0.7-1.3-1.2-2.3-1.7c-1-0.5-2.2-0.7-3.7-0.7
			c-1.6,0-2.9,0.3-4.2,0.8c-1.2,0.5-2.3,1.3-3.1,2.3c-0.9,1-1.5,2.3-2,3.7c-0.5,1.5-0.7,3.1-0.7,4.9c0,3.9,0.9,6.9,2.7,9
			c1.8,2.1,4.3,3.1,7.5,3.1c1.6,0,3-0.2,4.4-0.6c1.4-0.4,2.8-1,4.2-1.7v-5.4h-5.2c-1.3,0-2.2-0.2-2.8-0.6c-0.6-0.4-1-1-1-1.9
			c0-0.7,0.3-1.4,0.8-1.8c0.5-0.5,1.3-0.7,2.2-0.7h7.6c0.9,0,1.7,0.1,2.4,0.2c0.6,0.2,1.2,0.5,1.6,1.1
			C449.5,67.5,449.7,68.4,449.7,69.6z"/>
		<path class="st1" d="M464.9,53.3l12.9,19.6V53.1c0-1.3,0.3-2.2,0.8-2.9c0.6-0.6,1.3-1,2.2-1c1,0,1.7,0.3,2.3,1
			c0.6,0.6,0.8,1.6,0.8,2.9v26.1c0,2.9-1.2,4.4-3.6,4.4c-0.6,0-1.1-0.1-1.6-0.3c-0.5-0.2-0.9-0.4-1.4-0.8c-0.4-0.4-0.8-0.8-1.2-1.3
			c-0.4-0.5-0.7-1-1.1-1.6l-12.6-19.3v19.5c0,1.3-0.3,2.2-0.9,2.9c-0.6,0.6-1.3,1-2.3,1c-1,0-1.7-0.3-2.3-1
			c-0.6-0.7-0.9-1.6-0.9-2.9V54.1c0-1.1,0.1-1.9,0.4-2.6c0.3-0.7,0.8-1.2,1.4-1.7c0.7-0.4,1.4-0.6,2.2-0.6c0.6,0,1.1,0.1,1.6,0.3
			c0.4,0.2,0.8,0.5,1.1,0.8c0.3,0.3,0.7,0.8,1,1.3C464.2,52.2,464.5,52.7,464.9,53.3z"/>
	</g>
</g>
</svg>
